<svg width="15" height="15" viewBox="0 0 15 15" fill="none" xmlns="http://www.w3.org/2000/svg">
<path d="M14.2706 0.731052C13.2958 -0.243625 11.718 -0.243743 10.7431 0.731052L1.5219 9.9511C1.46043 10.0125 1.40958 10.0925 1.38037 10.1801L0.0309522 14.2279C-0.121392 14.6849 0.314517 15.1216 0.772104 14.969L4.82041 13.6197C4.90601 13.5912 4.98637 13.5413 5.04948 13.4782L14.2706 4.25816C15.2431 3.28574 15.2431 1.70347 14.2706 0.731052ZM1.51329 13.4869L2.1923 11.45L3.55039 12.8079L1.51329 13.4869ZM4.63516 12.2353L2.76494 10.3654L10.5952 2.53606L12.4654 4.40608L4.63516 12.2353ZM13.4419 3.42962L13.294 3.57754L11.4238 1.70752L11.5717 1.55963C12.0874 1.04409 12.9264 1.04409 13.4419 1.55963C13.9576 2.07516 13.9576 2.91405 13.4419 3.42962Z" fill="#A8A8BD"/>
</svg>
