<svg width="18" height="18" viewBox="0 0 18 18" fill="none" xmlns="http://www.w3.org/2000/svg">
<path d="M16.0312 2.8125H12.5156V2.10938C12.5156 0.946266 11.5694 0 10.4062 0H7.59375C6.43064 0 5.48438 0.946266 5.48438 2.10938V2.8125H1.96875C1.58041 2.8125 1.26562 3.12729 1.26562 3.51562C1.26562 3.90396 1.58041 4.21875 1.96875 4.21875H2.67188V14.4844C2.67188 16.4229 4.24898 18 6.1875 18H11.8125C13.7511 18 15.3281 16.4229 15.3281 14.4844V6.32812C15.3281 5.93979 15.0133 5.625 14.625 5.625C14.2367 5.625 13.9219 5.93979 13.9219 6.32812V14.4844C13.9219 15.6475 12.9756 16.5938 11.8125 16.5938H6.1875C5.02439 16.5938 4.07812 15.6475 4.07812 14.4844V4.21875H16.0312C16.4196 4.21875 16.7344 3.90396 16.7344 3.51562C16.7344 3.12729 16.4196 2.8125 16.0312 2.8125ZM6.89062 2.10938C6.89062 1.72167 7.20605 1.40625 7.59375 1.40625H10.4062C10.794 1.40625 11.1094 1.72167 11.1094 2.10938V2.8125H6.89062V2.10938Z" fill="#A8A8BD"/>
<path d="M6.1875 15.1875C5.79916 15.1875 5.48438 14.8727 5.48438 14.4844V7.73438C5.48438 7.34604 5.79916 7.03125 6.1875 7.03125C6.57584 7.03125 6.89062 7.34604 6.89062 7.73438V14.4844C6.89062 14.8727 6.57584 15.1875 6.1875 15.1875Z" fill="#A8A8BD"/>
<path d="M9 15.1875C8.61166 15.1875 8.29688 14.8727 8.29688 14.4844V7.73438C8.29688 7.34604 8.61166 7.03125 9 7.03125C9.38834 7.03125 9.70312 7.34604 9.70312 7.73438V14.4844C9.70312 14.8727 9.38834 15.1875 9 15.1875Z" fill="#A8A8BD"/>
<path d="M11.8125 15.1875C11.4242 15.1875 11.1094 14.8727 11.1094 14.4844V7.73438C11.1094 7.34604 11.4242 7.03125 11.8125 7.03125C12.2008 7.03125 12.5156 7.34604 12.5156 7.73438V14.4844C12.5156 14.8727 12.2008 15.1875 11.8125 15.1875Z" fill="#A8A8BD"/>
</svg>
